<?xml version="1.0" standalone="no"?><!DOCTYPE svg PUBLIC "-//W3C//DTD SVG 1.1//EN" "http://www.w3.org/Graphics/SVG/1.1/DTD/svg11.dtd"><svg t="1726546437396" class="icon" viewBox="0 0 2275 1024" version="1.1" xmlns="http://www.w3.org/2000/svg" p-id="2631" xmlns:xlink="http://www.w3.org/1999/xlink" width="444.3359375" height="200"><path d="M959.469105 334.191393a22.299602 22.299602 0 0 1-17.322012 17.777106 68.264088 68.264088 0 0 1-15.245646 1.479055c-70.880878 1.308395-141.790199 2.474573-212.699521 3.726082-52.961555 0.938631-105.951553 1.877262-158.913107 2.901223a76.398892 76.398892 0 0 0-17.492673 1.763489 22.384932 22.384932 0 0 0-10.893811 6.513532c-5.034476 5.688674-1.991036 12.486639 5.461127 13.510601 2.559903 0.34132 5.119807 0.199104 7.67971 0.199103 72.445263-0.625754 144.862083-1.763489 217.307347-1.735045 39.906048 0 79.812096 1.678159 119.746587 3.299431 9.500086 0.369764 19.199275 2.673677 28.44337 5.48957 24.347525 7.42372 34.530251 26.622994 27.362522 51.624716-13.16928 45.793826-42.608168 74.294082-88.828645 82.087566-24.063091 4.067402-48.723493 6.143768-73.09946 6.513532-87.833126 1.251508-175.637809 1.422168-263.442492 1.991036-9.443199 0.056887-17.350456 4.209619-16.411825 9.215652 1.621272 8.533011 9.300982 7.907257 15.302533 7.964143l159.737966 1.166178c52.989998 1.137735 105.979996 2.076366 158.941551 3.640752 10.324943 0.284434 20.84899 2.076366 30.889499 4.750042 18.004653 4.778486 25.456816 16.440268 23.920874 35.468883-3.071884 37.687465-22.925356 62.490084-56.687636 76.398891-26.822098 11.064471-55.037921 15.985174-83.623507 16.610928-91.360104 1.991036-182.720208 2.95811-274.080313 4.380279a89.482842 89.482842 0 0 0-9.187208 0.568868c-7.907257 0.938631-13.652818 5.574901-12.685743 10.922254 1.251508 6.940182 6.399758 9.556972 12.91329 9.784519 10.239613 0.34132 20.479226 1.080848 30.718839 1.023961 44.798308-0.17066 89.596615-1.109291 134.423366-0.625754 31.941904 0.369764 63.855365 2.3608 95.79727 4.067402 18.801068 0.995518 38.057229 16.383381 42.693499 32.908979 2.95811 10.666264-1.052405 19.597482-6.940183 27.675399-14.307015 19.825029-34.558694 31.344594-56.317872 40.361142-29.694878 12.315979-60.811925 18.801068-92.440952 23.29512a990.625687 990.625687 0 0 1-172.167719 9.044991c-50.174105-1.706602-99.352691-9.727633-145.715384-31.117046-35.497326-16.411824-58.223578-43.063262-65.305977-82.79865a181.72469 181.72469 0 0 1 1.706602-74.749176c11.434235-47.443541 23.892431-94.716422 37.260815-141.619539a6793.556688 6793.556688 0 0 1 51.141179-170.062909 433.932051 433.932051 0 0 1 38.56921-88.316663c24.745732-42.636612 61.494566-68.576965 107.430608-82.514216a509.250095 509.250095 0 0 1 111.896217-20.308567 615.969619 615.969619 0 0 1 112.664188 1.763489c69.97069 7.793483 137.66591 23.835544 198.449392 62.148764 29.950869 18.886398 55.777448 42.437508 72.24616 75.033609 5.774004 11.377348 9.955179 23.408893 6.826409 36.777278z m142.899491-106.662637c-28.727804-61.409236-75.232713-105.468016-131.891907-139.031193-58.109805-34.444921-121.254086-54.725044-186.730723-68.463191A925.262823 925.262823 0 0 0 651.086089 2.029719c-33.67695-2.104809-67.553004-1.564385-101.315284-1.962593a609.171654 609.171654 0 0 0-158.514901 19.113945c-49.29236 12.6573-95.911043 31.828131-137.296146 62.746074-43.404582 32.425442-74.009649 74.009649-88.885531 127.540071a3345.822047 3345.822047 0 0 1-36.891051 123.102905C93.425378 441.166907 57.529845 549.365486 23.170254 658.076046c-17.691776 55.976552-28.244266 113.375272-20.67833 172.679699 5.119807 39.962935 20.194793 75.318044 48.211512 104.131177 25.798137 26.452334 57.455607 42.835715 91.786755 54.35528 47.443541 15.928287 96.565241 21.787621 146.056705 24.262195 50.060331 2.53146 100.262879 3.157214 150.124106 4.579382 30.235302-0.910188 60.157727-1.848819 90.080153-2.70212a919.887026 919.887026 0 0 0 127.995164-12.771073c44.087223-7.480606 87.150485-18.744181 128.649362-35.86709a439.933603 439.933603 0 0 0 159.140655-111.327349c44.257884-48.439059 77.365966-104.244951 104.529384-164.004471a1021.742734 1021.742734 0 0 0 57.768485-162.80985c8.163247-31.117047 16.013617-62.54697 20.67833-94.375101 3.811412-25.940353 3.356318-52.648678 3.640751-79.044125 0.511981-44.826751-9.926736-87.349589-28.78469-127.653844z m179.051013 743.282142l10.268057 47.244438h37.374588l-13.624374-61.779a91.388548 91.388548 0 0 0-12.230649-30.206859c-2.559903-3.726081-6.997069-7.50905-13.283054-11.320461 22.783139-2.986554 41.61265-10.012066 56.460089-21.076537 14.847439-11.036028 25.599033-24.631958 32.226338-40.759349 5.14825-12.486639 6.741079-23.892431 4.750043-34.188931-1.991036-10.353387-7.338389-17.549559-16.070504-21.645404-8.732115-4.067402-23.12446-6.086881-43.148592-6.086881h-99.551795l-93.408027 227.063422h29.694879l41.52732-100.803303h34.444921c7.67971 0 13.027063 0.34132 16.070504 1.052404a27.590069 27.590069 0 0 1 11.092914 6.058438c3.242544 2.901224 6.200655 7.9357 8.817445 15.18876 2.645233 7.224616 5.518014 17.634889 8.589897 31.259263z m-68.320974-79.612992l30.889499-75.11894h71.051538c16.639371 0 27.419409 3.441648 32.283225 10.38183 4.863816 6.911739 5.119807 15.729184 0.654198 26.452334a59.389756 59.389756 0 0 1-14.335459 20.393896c-6.541975 6.257541-14.221685 10.780037-23.039129 13.652818-8.874331 2.815894-20.052576 4.238062-33.648507 4.238062H1213.127078z m446.020483 29.126011c-11.718668 28.130493-24.290638 47.159107-37.715908 57.028956-13.368384 9.898293-31.003273 14.847439-52.876225 14.847439-12.771073 0-22.527149-2.503017-29.268227-7.509049-6.769522-4.97759-10.012066-12.088432-9.78452-21.332528 0.199104-9.215652 4.380279-23.55111 12.515083-43.034818l53.871743-129.332003h-29.694879l-53.985516 129.502663c-9.898293 23.721771-14.847439 42.465951-14.847439 56.175655s5.176693 24.176864 15.558524 31.429924c10.353387 7.253059 26.054127 10.865367 47.073777 10.865368 21.645405 0 40.873123-4.152732 57.654711-12.48664a120.315455 120.315455 0 0 0 41.129113-32.311668c10.63782-13.283054 20.649887-31.14549 30.036198-53.672639l53.957073-129.502663h-29.694878l-53.92863 129.332003z m159.766409 97.731419h29.694878l93.436471-227.063422h-29.723322l-93.408027 227.063422z m432.765873-207.551271c-5.859334-7.85037-14.591449-13.283054-26.25323-16.269607-8.248577-2.190139-21.161867-3.242544-38.626096-3.242544h-77.337523l-93.43647 227.063422h81.063604c13.539044 0 26.111014-1.279952 37.630578-3.839855a126.317006 126.317006 0 0 0 31.486811-11.405792 149.100145 149.100145 0 0 0 28.926907-20.592999 196.771233 196.771233 0 0 0 28.926907-33.07964 229.537995 229.537995 0 0 0 24.831062-45.850712c8.305464-20.251679 12.799516-38.256333 13.396827-53.985516 0.597311-15.757627-2.929667-28.69936-10.609377-38.796757z m-33.250299 92.327179a202.801228 202.801228 0 0 1-23.892431 43.745903c-8.874331 12.031545-18.289087 21.616961-28.272709 28.756247a82.059122 82.059122 0 0 1-24.973279 11.747112c-9.585416 2.78745-21.787621 4.209619-36.578174 4.209619H2056.75743l71.392858-173.533h47.215994c17.634889 0 29.780208 1.564385 36.492844 4.664712 9.244095 4.323392 15.074986 12.884847 17.549559 25.627477 2.44613 12.771073-1.194622 31.003273-10.979141 54.78193z" fill="#0091FF" p-id="2632"></path></svg>