<?xml version="1.0" standalone="no"?><!DOCTYPE svg PUBLIC "-//W3C//DTD SVG 1.1//EN" "http://www.w3.org/Graphics/SVG/1.1/DTD/svg11.dtd"><svg t="1726546476155" class="icon" viewBox="0 0 1024 1024" version="1.1" xmlns="http://www.w3.org/2000/svg" p-id="4629" xmlns:xlink="http://www.w3.org/1999/xlink" width="200" height="200"><path d="M661.860044 34.726926l257.602558 270.558374a40.06953 40.06953 0 0 1 11.041382 27.603454V912.694859a111.749468 111.749468 0 0 1-112.194685 111.304251H201.238531A111.749468 111.749468 0 0 1 89.043846 912.694859v-15.582596a40.06953 40.06953 0 0 1 40.06953-40.06953h717.244594v-333.912753H129.113376a40.06953 40.06953 0 0 1-40.06953-40.06953V133.565101A111.749468 111.749468 0 0 1 201.238531 22.26085h431.593364a40.06953 40.06953 0 0 1 29.028149 12.466076z" fill="#029CFF" p-id="4630"></path><path d="M650.017271 133.565101v139.130314c0 30.719973 25.110239 55.652126 56.097343 55.652126h140.243356L650.017271 133.565101z" fill="#FFFFFF" p-id="4631"></path><path d="M196.074014 823.651458l24.308848-53.158911h82.98845l3.561736 53.158911h67.717506l-31.69945-280.486713H272.028035L129.113376 823.651458h66.960638z m104.180779-102.577998H243.534146l49.73074-108.855558 7.034429 108.855558zM474.601772 823.651458l19.589548-97.947741h26.623977c26.312325 0 48.97387-4.363127 67.717506-13.178424 18.832679-8.859818 33.079623-21.103286 42.918919-36.908489 9.794774-15.71616 14.692161-33.791971 14.692161-54.18291 0-23.952675-7.390602-43.052484-22.127285-57.07682-14.781205-14.113379-38.466749-21.192329-71.101155-21.192329h-90.824269l-55.652126 280.486713h68.118202z m50.131434-146.120221H503.540877l17.229898-86.238534h18.788158c11.753729 0 20.880677 2.804867 27.425367 8.37008 6.54469 5.565213 9.794774 14.692161 9.794774 27.247281 0.222609 13.267467-4.45217 26.089716-12.911293 35.750925-8.63721 9.928339-21.682068 14.870248-39.179096 14.870248zM714.573737 823.651458l55.607604-280.486713h-68.118202l-55.652125 280.486713h68.118201z" fill="#029CFF" p-id="4632"></path></svg>